<?xml version="1.0" encoding="UTF-8"?>
<!DOCTYPE svg PUBLIC "-//W3C//DTD SVG 1.1//EN" "http://www.w3.org/Graphics/SVG/1.1/DTD/svg11.dtd">
<!-- Creator: CorelDRAW X5 -->
<svg xmlns="http://www.w3.org/2000/svg" xml:space="preserve" width="130mm" height="130mm" style="shape-rendering:geometricPrecision; text-rendering:geometricPrecision; image-rendering:optimizeQuality; fill-rule:evenodd; clip-rule:evenodd"
viewBox="0 0 13000 13000"
 xmlns:xlink="http://www.w3.org/1999/xlink">
 <defs>
  <style type="text/css">
   <![CDATA[
    .fil0 {fill:black}
    .fil1 {fill:red}
    .fil2 {fill:white}
   ]]>
  </style>
 </defs>
 <g id="Layer_x0020_1">
  <metadata id="CorelCorpID_0Corel-Layer"/>
  <path class="fil0" d="M7482 7065c0,155 -127,282 -282,282l-406 0c-23,-78 -83,-130 -152,-172l373 0c60,0 110,-49 110,-110l0 -1130c0,-60 -49,-110 -110,-110l-347 0 1 -43c98,-37 202,-73 291,-129l239 0c155,0 282,127 282,282l0 1131zm-1488 -2183c-4,18 -30,44 -66,65 -20,12 -41,20 -57,24 4,-18 30,-44 66,-65 20,-12 41,-20 57,-24zm-20 147c-60,47 -188,116 -277,127 -72,18 -77,114 -159,124 43,-36 60,-90 98,-124 -23,1 -45,3 -65,5 -41,3 -83,10 -124,17 65,-39 206,-54 260,-52 39,-8 81,-21 120,-38 -55,10 -112,7 -156,-12 -11,-29 123,-150 255,-233 64,-41 186,-40 257,-77 230,-120 391,-212 586,-175 250,46 494,249 500,483 5,234 -103,411 -301,545 -78,53 -189,95 -298,136l5 -156c28,-34 45,-73 50,-115 37,-20 70,-42 98,-65 114,-95 171,-151 169,-328 -2,-177 -248,-271 -451,-261 -96,5 -196,37 -283,92 -82,52 -154,120 -235,157 -54,25 -120,34 -182,33 53,-19 100,-49 132,-84zm-43 -165c108,-60 301,-68 277,8 -18,57 -160,197 -296,224 44,-38 86,-64 90,-100 -89,32 -219,109 -298,57 32,-43 119,-129 227,-189zm568 131c99,0 182,142 201,330l-402 0c19,-188 102,-330 201,-330zm152 596l-20 593c-36,-19 -73,-36 -108,-52 -69,-32 -132,-60 -162,-94l-15 -447c-24,-27 -41,-61 -49,-98l402 0c-8,37 -25,71 -49,98zm-30 906l-22 653c-20,-11 -41,-22 -61,-32 -62,-31 -118,-60 -143,-95l-22 -670c21,10 42,19 63,28 90,40 178,73 186,116zm-30 897l-23 675 -69 157 -69 -157 -27 -796c6,3 13,6 19,9 73,34 152,65 169,112zm112 -2035l0 101 -408 0 0 -101 408 0zm-370 2737c-25,-117 -120,-289 -62,-395 26,-48 71,-77 119,-100l5 143c-19,15 -36,32 -50,52 -55,85 -8,200 -12,300zm280 -656c1,-7 3,-14 3,-21 13,-178 -445,-146 -444,-453 0,-130 89,-193 188,-240l7 215c-7,14 -11,29 -11,46 4,156 417,166 422,428 3,130 -78,186 -173,228l7 -203zm31 -937c2,-68 -203,-144 -270,-175 -138,-65 -280,-153 -283,-333 -2,-154 101,-248 234,-322l9 268c-11,18 -17,36 -16,56 3,63 76,103 168,145 152,70 353,149 355,362 1,153 -97,230 -206,284l9 -284zm-262 844l-865 0 0 -1694 796 0c-78,44 -151,100 -197,172l-247 0 0 1350 375 0c39,34 87,60 135,83l3 90zm-1442 -1694l352 0 0 1694 -352 0 0 -1694zm2766 0l352 0 0 1694 -352 0 0 -1694z"/>
  <path class="fil1" d="M6500 4287c1219,0 2213,994 2213,2213 0,1219 -994,2213 -2213,2213 -1219,0 -2213,-994 -2213,-2213 0,-1219 994,-2213 2213,-2213zm0 -754c1634,0 2967,1333 2967,2967 0,1634 -1333,2967 -2967,2967 -1634,0 -2967,-1333 -2967,-2967 0,-1634 1333,-2967 2967,-2967zm0 525c1345,0 2442,1097 2442,2442 0,1345 -1097,2442 -2442,2442 -1345,0 -2442,-1097 -2442,-2442 0,-1345 1097,-2442 2442,-2442zm0 337c1160,0 2105,946 2105,2105 0,1160 -946,2105 -2105,2105 -1160,0 -2105,-946 -2105,-2105 0,-1160 946,-2105 2105,-2105z"/>
  <path class="fil2" d="M6500 3452c1679,0 3048,1369 3048,3048 0,1679 -1369,3048 -3048,3048 -1679,0 -3048,-1369 -3048,-3048 0,-1679 1369,-3048 3048,-3048zm-506 1431c-4,18 -30,44 -66,65 -20,12 -41,20 -57,24 4,-18 30,-44 66,-65 20,-12 41,-20 57,-24zm1488 2183c0,155 -127,282 -282,282l-406 0c-23,-78 -83,-130 -152,-172l373 0c60,0 110,-49 110,-110l0 -1130c0,-60 -49,-110 -110,-110l-347 0 1 -43c98,-37 202,-73 291,-129l239 0c155,0 282,127 282,282l0 1131zm-1508 -2036c-60,47 -188,116 -277,127 -72,18 -77,114 -159,124 43,-36 60,-90 98,-124 -23,1 -45,3 -65,5 -41,3 -83,10 -124,17 65,-39 206,-54 260,-52 39,-8 81,-21 120,-38 -55,10 -112,7 -156,-12 -11,-29 123,-150 255,-233 64,-41 186,-40 257,-77 230,-120 391,-212 586,-175 250,46 494,249 500,483 5,234 -103,411 -301,545 -78,53 -189,95 -298,136l5 -156c28,-34 45,-73 50,-115 37,-20 70,-42 98,-65 114,-95 171,-151 169,-328 -2,-177 -248,-271 -451,-261 -96,5 -196,37 -283,92 -82,52 -154,120 -235,157 -54,25 -120,34 -182,33 53,-19 100,-49 132,-84zm-43 -165c108,-60 301,-68 277,8 -18,57 -160,197 -296,224 44,-38 86,-64 90,-100 -89,32 -219,109 -298,57 32,-43 119,-129 227,-189zm568 131c99,0 182,142 201,330l-402 0c19,-188 102,-330 201,-330zm152 596l-20 593c-36,-19 -73,-36 -108,-52 -69,-32 -132,-60 -162,-94l-15 -447c-24,-27 -41,-61 -49,-98l402 0c-8,37 -25,71 -49,98zm-30 906l-22 653c-20,-11 -41,-22 -61,-32 -62,-31 -118,-60 -143,-95l-22 -670c21,10 42,19 63,28 90,40 178,73 186,116zm-30 897l-23 675 -69 157 -69 -157 -27 -796c6,3 13,6 19,9 73,34 152,65 169,112zm112 -2035l0 101 -408 0 0 -101 408 0zm-370 2737c-25,-117 -120,-289 -62,-395 26,-48 71,-77 119,-100l5 143c-19,15 -36,32 -50,52 -55,85 -8,200 -12,300zm280 -656c1,-7 3,-14 3,-21 13,-178 -445,-146 -444,-453 0,-130 89,-193 188,-240l7 215c-7,14 -11,29 -11,46 4,156 417,166 422,428 3,130 -78,186 -173,228l7 -203zm31 -937c2,-68 -203,-144 -270,-175 -138,-65 -280,-153 -283,-333 -2,-154 101,-248 234,-322l9 268c-11,18 -17,36 -16,56 3,63 76,103 168,145 152,70 353,149 355,362 1,153 -97,230 -206,284l9 -284zm-262 844l-865 0 0 -1694 796 0c-78,44 -151,100 -197,172l-247 0 0 1350 375 0c39,34 87,60 135,83l3 90zm-1442 -1694l352 0 0 1694 -352 0 0 -1694zm2766 0l352 0 0 1694 -352 0 0 -1694zm-1207 -1366c1219,0 2213,994 2213,2213 0,1219 -994,2213 -2213,2213 -1219,0 -2213,-994 -2213,-2213 0,-1219 994,-2213 2213,-2213zm0 -754c1634,0 2967,1333 2967,2967 0,1634 -1333,2967 -2967,2967 -1634,0 -2967,-1333 -2967,-2967 0,-1634 1333,-2967 2967,-2967zm0 525c1345,0 2442,1097 2442,2442 0,1345 -1097,2442 -2442,2442 -1345,0 -2442,-1097 -2442,-2442 0,-1345 1097,-2442 2442,-2442zm0 337c1160,0 2105,946 2105,2105 0,1160 -946,2105 -2105,2105 -1160,0 -2105,-946 -2105,-2105 0,-1160 946,-2105 2105,-2105z"/>
 </g>
</svg>
